<svg width="100%" height="100%" viewBox="0 0 24 24" fill="none" xmlns="http://www.w3.org/2000/svg">
  <!-- Head -->
  <circle cx="12" cy="6" r="2.5" stroke="black" stroke-width="2" fill="none"/>
  <!-- Body (stick figure) -->
  <line x1="12" y1="8.5" x2="12" y2="16" stroke="black" stroke-width="2" stroke-linecap="round"/>
  <!-- Arms -->
  <line x1="12" y1="10" x2="8" y2="13" stroke="black" stroke-width="2" stroke-linecap="round"/>
  <line x1="12" y1="10" x2="16" y2="13" stroke="black" stroke-width="2" stroke-linecap="round"/>
  <!-- Legs -->
  <line x1="12" y1="16" x2="9" y2="20" stroke="black" stroke-width="2" stroke-linecap="round"/>
  <line x1="12" y1="16" x2="15" y2="20" stroke="black" stroke-width="2" stroke-linecap="round"/>
  <!-- Ideas (sun rays - small lines radiating from head) -->
  <line x1="12" y1="3.5" x2="12" y2="1" stroke="black" stroke-width="1.5" stroke-linecap="round"/>
  <line x1="12" y1="3.5" x2="9.5" y2="2" stroke="black" stroke-width="1.5" stroke-linecap="round"/>
  <line x1="12" y1="3.5" x2="14.5" y2="2" stroke="black" stroke-width="1.5" stroke-linecap="round"/>
  <line x1="12" y1="3.5" x2="10" y2="1.5" stroke="black" stroke-width="1.5" stroke-linecap="round"/>
  <line x1="12" y1="3.5" x2="14" y2="1.5" stroke="black" stroke-width="1.5" stroke-linecap="round"/>
  <line x1="12" y1="3.5" x2="8.5" y2="3" stroke="black" stroke-width="1.5" stroke-linecap="round"/>
  <line x1="12" y1="3.5" x2="15.5" y2="3" stroke="black" stroke-width="1.5" stroke-linecap="round"/>
  <line x1="12" y1="3.5" x2="10.5" y2="0.5" stroke="black" stroke-width="1.5" stroke-linecap="round"/>
  <line x1="12" y1="3.5" x2="13.5" y2="0.5" stroke="black" stroke-width="1.5" stroke-linecap="round"/>
</svg>